<svg xmlns="http://www.w3.org/2000/svg" width="1200" height="627" viewBox="0 0 1200 627">
<rect width="1200" height="627" fill="#0a0908"/>
<g opacity="0.06">
  <polygon points="600,80 780,183 780,389 600,492 420,389 420,183" fill="none" stroke="#c8a84b" stroke-width="1"/>
  <polygon points="600,130 745,213 745,379 600,462 455,379 455,213" fill="none" stroke="#c8a84b" stroke-width="0.8"/>
  <polygon points="600,180 710,243 710,369 600,432 490,369 490,243" fill="none" stroke="#c8a84b" stroke-width="0.6"/>
  <line x1="600" y1="80" x2="600" y2="492" stroke="#c8a84b" stroke-width="0.5"/>
  <line x1="420" y1="183" x2="780" y2="389" stroke="#c8a84b" stroke-width="0.5"/>
  <line x1="780" y1="183" x2="420" y2="389" stroke="#c8a84b" stroke-width="0.5"/>
</g>
<text x="600" y="210" font-family="'Courier New', monospace" font-size="72" text-anchor="middle" fill="#c8a84b">[</text>
<text x="556" y="210" font-family="'Courier New', monospace" font-size="72" text-anchor="middle" fill="rgba(200,168,75,0.28)">[</text>
<text x="644" y="210" font-family="'Courier New', monospace" font-size="72" text-anchor="middle" fill="rgba(200,168,75,0.28)">]</text>
<text x="600" y="210" font-family="'Courier New', monospace" font-size="72" text-anchor="middle" fill="#c8a84b">]</text>
<text x="600" y="248" font-family="'Courier New', monospace" font-size="14" text-anchor="middle" letter-spacing="6" fill="rgba(232,228,219,0.45)">THE REASONING MACHINE</text>
<line x1="480" y1="268" x2="720" y2="268" stroke="rgba(200,168,75,0.2)" stroke-width="0.5"/>
<text x="600" y="345" font-family="Georgia, serif" font-size="68" text-anchor="middle" fill="#f0ece4">Confidence is not evidence.</text>
<text x="600" y="400" font-family="'Courier New', monospace" font-size="20" text-anchor="middle" fill="rgba(232,228,219,0.45)">The structure under the conviction.</text>
<text x="600" y="565" font-family="'Courier New', monospace" font-size="14" text-anchor="middle" letter-spacing="3" fill="rgba(200,168,75,0.35)">think-better-nine.vercel.app</text>
</svg>
